<?xml version="1.0" encoding="UTF-8"?>
<svg width="66px" height="17px" viewBox="0 0 66 17" version="1.1" xmlns="http://www.w3.org/2000/svg" xmlns:xlink="http://www.w3.org/1999/xlink">
    <title>Logo-Syspay-White</title>
    <defs>
        <rect id="path-1" x="0" y="0" width="66" height="17"></rect>
    </defs>
    <g id="Tarjetas-Gateways" stroke="none" stroke-width="1" fill="none" fill-rule="evenodd">
        <g id="Branding-Gateways-CreditCard" transform="translate(-621.000000, -1308.000000)">
            <g id="Logo-Syspay-White" transform="translate(621.000000, 1308.000000)">
                <mask id="mask-2" fill="white">
                    <use xlink:href="#path-1"></use>
                </mask>
                <g id="Mask"></g>
                <g mask="url(#mask-2)" fill="#FFFFFF">
                    <g transform="translate(0.000000, 1.000000)">
                        <path d="M0.893646,8.853759 C1.115586,8.853759 1.337661,8.859429 1.559196,8.851464 C1.677456,8.847279 1.717281,8.866989 1.707831,9.003744 C1.655451,9.762849 1.901016,10.147464 2.607336,10.434609 C2.733696,10.486044 2.864781,10.530729 2.997621,10.560969 C3.603636,10.698939 4.209516,10.735929 4.805271,10.512909 C5.094441,10.404639 5.359581,10.252899 5.560596,10.010979 C6.021081,9.456939 5.925906,8.632494 5.347971,8.204004 C4.923666,7.889319 4.435236,7.703424 3.939516,7.538589 C3.203496,7.293834 2.477736,7.028964 1.829736,6.589809 C1.332396,6.252714 0.917001,5.846634 0.783486,5.236299 C0.526581,4.061799 0.892296,2.682234 2.310741,1.965384 C3.025296,1.604124 3.785886,1.476279 4.577121,1.486944 C5.253876,1.496259 5.909706,1.602234 6.521661,1.910439 C7.547256,2.426949 8.030556,3.381534 7.843311,4.515804 C7.824141,4.632174 7.786881,4.679559 7.655256,4.676589 C7.195986,4.666059 6.736176,4.672269 6.276501,4.672674 C6.206571,4.672674 6.145956,4.686984 6.158106,4.570074 C6.250311,3.682854 5.651316,3.103434 4.947966,2.946429 C4.223556,2.784699 3.541131,2.846799 2.919051,3.311604 C2.353941,3.733749 2.198286,4.938354 3.043791,5.381424 C3.587706,5.666409 4.154031,5.886729 4.732101,6.085044 C5.473116,6.339249 6.186726,6.645159 6.797871,7.153164 C7.375266,7.633089 7.597341,8.260029 7.578846,8.988219 C7.567506,9.434259 7.486776,9.867744 7.296561,10.275714 C6.980796,10.952874 6.447006,11.405529 5.763366,11.661624 C4.222746,12.239019 2.695356,12.201624 1.212246,11.458989 C0.593946,11.149299 0.162486,10.671804 0.038421,9.962919 C-0.021519,9.620964 -0.005589,9.281439 0.047061,8.940699 C0.059616,8.858889 0.101196,8.852949 0.164646,8.853219 C0.407646,8.854569 0.650646,8.853759 0.893646,8.853759" id="Fill-1"></path>
                        <path d="M26.0174835,6.6240855 C26.3290635,6.6240855 26.6405085,6.6230055 26.9520885,6.6243555 C27.3045735,6.6258405 27.6503085,6.5768355 27.9658035,6.4180755 C28.7080335,6.0446655 29.0937285,5.4275805 29.1506985,4.6054305 C29.1830985,4.1383305 29.0753685,3.7122705 28.7166735,3.3835455 C28.4061735,3.0991005 28.0134585,3.0266055 27.6146685,3.0189105 C26.8809435,3.0046005 26.1468135,3.0168855 25.4128185,3.0125655 C25.3038735,3.0118905 25.2682335,3.0514455 25.2531135,3.1543155 C25.0900335,4.2629355 24.9239835,5.3710155 24.7544235,6.4786905 C24.7375485,6.5895255 24.7576635,6.6284055 24.8770035,6.6265155 C25.2570285,6.6201705 25.6373235,6.6240855 26.0174835,6.6240855 M25.9251435,8.0106705 C25.4546685,8.0106705 25.0637085,8.0156655 24.6730185,8.0075655 C24.5590785,8.0052705 24.5157435,8.0407755 24.5002185,8.1502605 C24.4161135,8.7389955 24.3262035,9.3267855 24.2392635,9.9149805 C24.1500285,10.5189705 24.0583635,11.1224205 23.9756085,11.7272205 C23.9567085,11.8653255 23.9017635,11.9069055 23.7631185,11.9042055 C23.2985835,11.8955655 22.8336435,11.8975905 22.3689735,11.9032605 C22.2480135,11.9047455 22.2180435,11.8765305 22.2377535,11.7507105 C22.3773435,10.8620055 22.5088335,9.9719505 22.6418085,9.0821655 C22.7739735,8.1972405 22.9038435,7.3120455 23.0365485,6.4273905 C23.1685785,5.5478655 23.3037135,4.6690155 23.4360135,3.7894905 C23.5363185,3.1234005 23.6374335,2.4573105 23.7301785,1.7901405 C23.7471885,1.6671555 23.7849885,1.62215837 23.9153985,1.6226055 C25.1988435,1.6273305 26.4824235,1.6150455 27.7657335,1.6293555 C28.5411735,1.6378605 29.2893435,1.7783955 29.9246535,2.2708755 C30.5348535,2.7439155 30.8816685,3.3639705 30.8939535,4.1408955 C30.9158235,5.5264005 30.4044435,6.6486555 29.2040235,7.4034405 C28.6345935,7.7614605 27.9975285,7.9188705 27.3330585,7.9829955 C26.8376085,8.0307855 26.3412135,7.9994655 25.9251435,8.0106705" id="Fill-3"></path>
                        <path d="M34.482942,8.485668 C34.217802,8.499708 33.898932,8.451918 33.586272,8.521038 C32.972427,8.656713 32.485752,8.963433 32.282577,9.588483 C32.092362,10.173573 32.411232,10.604628 33.021297,10.648368 C33.738957,10.699803 34.345647,10.448298 34.879977,9.993888 C35.031582,9.864963 35.187642,9.723213 35.226792,9.515718 C35.283222,9.216018 35.314677,8.911728 35.368272,8.611488 C35.389332,8.493228 35.342892,8.482023 35.246367,8.484048 C35.008902,8.489043 34.771167,8.485668 34.482942,8.485668 M35.047917,10.807128 C34.670997,11.236563 34.274502,11.565018 33.797547,11.785203 C33.064767,12.123513 32.311197,12.139038 31.567347,11.852163 C30.720627,11.525598 30.414852,10.763118 30.497607,9.936108 C30.543777,9.474273 30.665952,9.035793 30.941757,8.651583 C31.315167,8.131293 31.838697,7.828488 32.434587,7.639623 C32.945427,7.477758 33.472737,7.420383 34.008687,7.403508 C34.478487,7.388793 34.948017,7.393653 35.417547,7.391088 C35.514207,7.390548 35.560242,7.367193 35.570367,7.264998 C35.601012,6.952338 35.693082,6.645888 35.658117,6.326478 C35.608707,5.876793 35.354772,5.592348 34.908597,5.510943 C34.496037,5.435748 34.089012,5.444793 33.703992,5.640408 C33.394437,5.797818 33.158997,6.019893 33.080967,6.372783 C33.064902,6.445413 33.027102,6.463503 32.959197,6.463368 C32.478597,6.462963 31.997997,6.461208 31.517397,6.468633 C31.358637,6.471063 31.394547,6.370758 31.409262,6.289488 C31.477302,5.912973 31.636872,5.578713 31.893507,5.292918 C32.456187,4.665978 33.168042,4.318218 33.991137,4.185378 C34.590537,4.088583 35.190207,4.084803 35.779482,4.248423 C36.426402,4.427973 36.955062,4.769118 37.242207,5.404833 C37.428102,5.816448 37.447947,6.252768 37.384497,6.690978 C37.242612,7.669998 37.092357,8.647938 36.939132,9.625203 C36.857457,10.145898 36.774432,10.665513 36.790362,11.195388 C36.796032,11.385468 36.814257,11.573793 36.848277,11.760498 C36.866097,11.858238 36.848412,11.904408 36.732852,11.903058 C36.236322,11.897928 35.739792,11.899278 35.243262,11.902518 C35.151462,11.903058 35.117172,11.870928 35.100567,11.779533 C35.045082,11.473218 35.045757,11.164068 35.047917,10.807128" id="Fill-5"></path>
                        <path d="M11.161881,9.5894685 C11.343996,9.2003985 11.526786,8.8115985 11.707956,8.4221235 C12.333276,7.0772535 12.958056,5.7321135 13.582431,4.3868385 C13.611186,4.3248735 13.627656,4.2691185 13.721616,4.2699285 C14.312916,4.2751935 14.904351,4.2726285 15.519546,4.2726285 C15.429231,4.4537985 15.347556,4.6213335 15.262776,4.7871135 C14.369481,6.5345535 13.475376,8.2815885 12.582081,10.0290285 C12.071916,11.0269485 11.564451,12.0262185 11.052261,13.0231935 C10.794681,13.5245835 10.459611,13.9702185 10.043676,14.3518635 C9.442926,14.9032035 8.723376,15.0391485 7.939971,14.9356035 C7.799301,14.9169735 7.661196,14.8793085 7.521066,14.8543335 C7.446276,14.8409685 7.427781,14.8104585 7.450866,14.7348585 C7.567911,14.3526735 7.680501,13.9691385 7.792551,13.5856035 C7.814421,13.5106785 7.851681,13.4936685 7.930656,13.5048735 C8.124111,13.5322785 8.320941,13.5480735 8.514936,13.5186435 C8.804106,13.4749035 9.026451,13.3092585 9.225846,13.1047335 C9.581436,12.7402335 9.790146,12.2810985 10.045701,11.8519335 C10.077966,11.7976635 10.059201,11.7520335 10.047996,11.7010035 C9.638811,9.8240985 9.230436,7.9470585 8.821116,6.0701535 C8.701101,5.5198935 8.580141,4.9697685 8.455941,4.4204535 C8.432316,4.3159635 8.430156,4.2662835 8.569206,4.26862855 C9.102591,4.2780285 9.636111,4.2745185 10.169631,4.2707385 C10.268451,4.2700635 10.311516,4.2868035 10.330416,4.4010135 C10.572336,5.8661685 10.825731,7.3294335 11.066571,8.7947235 C11.108961,9.0523035 11.107746,9.3167685 11.126646,9.5781285 C11.138391,9.5819085 11.150136,9.5856885 11.161881,9.5894685" id="Fill-7"></path>
                        <path d="M40.912317,9.58176 C40.965507,9.47052 41.019507,9.359685 41.071482,9.247905 C41.811282,7.65612 42.552567,6.065145 43.286832,4.470795 C43.355952,4.320675 43.436007,4.26438 43.604352,4.2687 C44.095347,4.28139 44.586747,4.273155 45.078147,4.273425 C45.272007,4.273425 45.273627,4.274505 45.188982,4.44042 C44.179317,6.417495 43.169517,8.394435 42.158772,10.37097 C41.681142,11.30517 41.207967,12.241935 40.720482,13.171005 C40.455747,13.6755 40.100697,14.1183 39.653037,14.471595 C39.016647,14.973795 38.282922,15.057765 37.508697,14.90589 C37.168767,14.839065 37.169712,14.835015 37.270017,14.504265 C37.361547,14.202 37.455912,13.900275 37.541637,13.596255 C37.565937,13.50972 37.610217,13.483935 37.689732,13.501215 C38.366757,13.64823 38.841417,13.34502 39.217662,12.818925 C39.433257,12.51774 39.596472,12.185505 39.784932,11.868255 C39.820572,11.808045 39.809907,11.744595 39.796542,11.683305 C39.467817,10.17657 39.137472,8.67024 38.808477,7.16364 C38.607597,6.243075 38.411307,5.321565 38.205162,4.402215 C38.177757,4.27977 38.219202,4.271535 38.316942,4.27194 C38.855727,4.274505 39.394647,4.27626 39.933432,4.270725 C40.038192,4.269645 40.069782,4.312845 40.085172,4.40397 C40.325607,5.83659 40.571847,7.268265 40.806612,8.70183 C40.853727,8.98911 40.859532,9.28314 40.884372,9.574065 L40.912317,9.58176 Z" id="Fill-9"></path>
                        <path d="M20.63259,6.562188 C20.38959,6.562188 20.14659,6.560433 19.90359,6.563268 C19.83528,6.564078 19.80558,6.556518 19.80315,6.471468 C19.78695,5.859513 19.505475,5.529843 18.893655,5.437503 C18.43722,5.368653 17.998065,5.431293 17.618175,5.725053 C17.411355,5.885028 17.26866,6.086448 17.216685,6.348483 C17.15094,6.680043 17.27271,6.943833 17.57295,7.098408 C17.94366,7.289163 18.35163,7.353153 18.752175,7.442523 C19.26801,7.557813 19.771695,7.707123 20.23407,7.971183 C21.014505,8.416548 21.291795,9.056718 21.089295,9.930573 C20.935665,10.593153 20.5632,11.106288 19.985265,11.447973 C18.82737,12.132423 17.59023,12.234078 16.331895,11.798433 C15.61599,11.550573 15.113925,11.036628 14.905215,10.282113 C14.84271,10.055988 14.841495,9.824733 14.877945,9.591858 C14.89023,9.512613 14.91669,9.485343 14.99661,9.485883 C15.46668,9.488718 15.936885,9.487368 16.406955,9.487098 C16.4619,9.487098 16.513065,9.481833 16.50591,9.566208 C16.447455,10.254438 16.881345,10.613673 17.54298,10.721268 C17.99334,10.794438 18.4383,10.761633 18.85221,10.545498 C19.10844,10.411848 19.30662,10.222308 19.390455,9.934353 C19.498995,9.562023 19.37925,9.250713 19.04337,9.057798 C18.691155,8.855703 18.29871,8.768493 17.907885,8.680743 C17.402715,8.567478 16.91145,8.418033 16.452585,8.171523 C15.53013,7.675803 15.30198,6.918453 15.64029,5.953338 C15.854805,5.340978 16.290585,4.903983 16.846245,4.602798 C17.88318,4.040523 18.980325,3.960333 20.08746,4.349943 C20.763405,4.587813 21.26331,5.046003 21.45717,5.771088 C21.51792,5.998158 21.51765,6.228738 21.484845,6.461478 C21.4731,6.544908 21.43746,6.564483 21.361455,6.563403 C21.11859,6.560163 20.87559,6.562188 20.63259,6.562188" id="Fill-12"></path>
                        <path d="M48.2876775,2.9823795 C49.0479975,2.9823795 49.7976525,2.9864295 50.5471725,2.9790045 C50.6944575,2.9775195 50.7507525,3.0055995 50.7423825,3.1661145 C50.7276675,3.4450245 50.7311775,3.7255545 50.7414375,4.0047345 C50.7464325,4.1401395 50.7145725,4.1840145 50.5694475,4.1826645 C49.7351475,4.1749695 48.9004425,4.1826645 48.0660075,4.1756445 C47.9157525,4.1742945 47.8346175,4.1940045 47.8327275,4.3695045 C47.8311075,4.5275895 47.8302975,4.6840545 47.8443375,4.8418695 C47.8525725,4.9350195 47.8934775,4.9527045 47.9754225,4.9517595 C48.2764725,4.9483845 48.5775225,4.9505445 48.8785725,4.9505445 C49.4490825,4.9505445 50.0194575,4.9536495 50.5899675,4.9478445 C50.7078225,4.9466295 50.7445425,4.9782195 50.7411675,5.0982345 C50.7325275,5.3987445 50.7322575,5.6999295 50.7413025,6.0004395 C50.7448125,6.1218045 50.7060675,6.1493445 50.5898325,6.1485345 C49.8820275,6.1432695 49.1742225,6.1458345 48.4664175,6.1458345 L48.2705325,6.1458345 C48.3620625,6.3299745 48.4773525,6.4787445 48.6012825,6.6181995 C49.2411825,7.3378845 50.0414625,7.7369445 51.0056325,7.7993145 C51.3004725,7.8184845 51.3006075,7.8164595 51.3006075,8.1053595 C51.3006075,8.3956095 51.2956125,8.6859945 51.3030375,8.9759745 C51.3060075,9.0920745 51.2749575,9.1309545 51.1533225,9.12900414 C50.0031225,9.1094895 48.9796875,8.7402645 48.0935475,8.0109945 C47.2577625,7.3231695 46.7112825,6.4497195 46.5203925,5.3794395 C46.2561975,3.8982195 46.6591725,2.6057295 47.6855775,1.5095295 C48.4093125,0.7363845 49.3076025,0.2775195 50.3433225,0.0820395 C50.6177775,0.0301995 50.8962825,0.0048195 51.1765425,3.68153663e-05 C51.2745525,-0.0015255 51.3037125,0.0307395 51.3023625,0.1268595 C51.2977725,0.4750245 51.2954775,0.8234595 51.3031725,1.1714895 C51.3060075,1.2986595 51.2626725,1.3275495 51.1399575,1.3320045 C49.9722075,1.3752045 49.0440825,1.8693045 48.3662475,2.8245645 C48.3418125,2.8588545 48.3202125,2.8951695 48.2984775,2.9313495 C48.2936175,2.9395845 48.2940225,2.9509245 48.2876775,2.9823795" id="Fill-14"></path>
                        <path d="M55.18098,4.1742405 C54.94392,4.1742405 54.70686,4.1731605 54.469665,4.1749155 C54.39906,4.1754555 54.354645,4.1688405 54.34884,4.0765005 C54.327915,3.7462905 54.28944,3.4174305 54.221805,3.0931605 C54.20385,3.0075705 54.20979,2.9719305 54.311445,2.9730105 C54.759105,2.9774655 55.207035,2.9763855 55.65483,2.9734155 C55.73151,2.9730105 55.764315,3.0020355 55.7901,3.0723705 C55.903905,3.3847605 55.97451,3.7070055 56.02716,4.0343805 C56.045655,4.1494005 56.00205,4.1795055 55.892295,4.1764005 C55.65537,4.1695155 55.418175,4.1742405 55.18098,4.1742405" id="Fill-16"></path>
                        <path d="M55.2083985,4.945806 C55.4454585,4.945806 55.6826535,4.949316 55.9195785,4.944051 C56.0129985,4.942026 56.0410785,4.976316 56.0290635,5.064471 C55.9846485,5.393331 55.9116135,5.715306 55.8025335,6.028911 C55.7810685,6.090606 55.7473185,6.120036 55.6763085,6.1195033 C55.2232485,6.116661 54.7701885,6.116931 54.3169935,6.118956 C54.2386935,6.119361 54.2119635,6.089121 54.2265435,6.014871 C54.2908035,5.684661 54.3298185,5.350941 54.3515535,5.015466 C54.3569535,4.931901 54.4156785,4.946481 54.4654935,4.946211 C54.7130835,4.945266 54.9608085,4.945806 55.2083985,4.945806" id="Fill-18"></path>
                        <path d="M55.374381,6.909111 C54.756351,7.852221 53.938521,8.479026 52.913331,8.847711 C52.882011,8.789661 52.916031,8.771571 52.935336,8.750916 C53.390556,8.261001 53.710776,7.690221 53.934066,7.064496 C53.977131,6.944076 54.030996,6.903036 54.158706,6.906006 C54.551826,6.914781 54.945216,6.909111 55.374381,6.909111" id="Fill-20"></path>
                        <path d="M52.719336,4.1742405 C52.508061,4.1742405 52.296651,4.1700555 52.085646,4.1759955 C51.981021,4.1788305 51.947541,4.1399505 51.949161,4.0376205 C51.953886,3.7264455 51.953346,3.4150005 51.949161,3.1038255 C51.947946,3.0121605 51.970221,2.9715255 52.072011,2.9728755 C52.452171,2.9778705 52.832601,2.9786805 53.212761,2.9723355 C53.311041,2.9707155 53.341281,3.0114855 53.354106,3.0961305 C53.401086,3.4085205 53.439021,3.7215855 53.463591,4.0368105 C53.472771,4.1550705 53.427816,4.1799105 53.321301,4.1762655 C53.120961,4.1693805 52.919946,4.1742405 52.719336,4.1742405" id="Fill-22"></path>
                        <path d="M52.711695,4.945752 C52.9173,4.945752 53.12304,4.949532 53.328375,4.943997 C53.42544,4.941432 53.47242,4.960197 53.46459,5.073057 C53.442855,5.387877 53.401815,5.700132 53.35875,6.012387 C53.347005,6.096762 53.302185,6.120792 53.21943,6.119847 C52.83981,6.115932 52.460325,6.115932 52.080705,6.119712 C51.98985,6.120657 51.94719,6.100542 51.948945,5.998347 C51.954345,5.687712 51.954345,5.376807 51.948945,5.066307 C51.947055,4.965057 51.987015,4.941837 52.079085,4.944132 C52.289955,4.949262 52.500825,4.945752 52.711695,4.945752" id="Fill-24"></path>
                        <path d="M52.854741,0.267543 C53.907606,0.637443 54.722061,1.256148 55.349136,2.183868 L54.630666,2.183868 C54.461781,2.183868 54.292626,2.177388 54.124416,2.186298 C54.018711,2.191968 53.964306,2.160513 53.927586,2.056968 C53.701461,1.419363 53.368551,0.844263 52.903476,0.348813 C52.890921,0.335178 52.883766,0.316278 52.854741,0.267543" id="Fill-26"></path>
                        <path d="M51.9763095,9.05013 C51.9327045,9.012735 51.9517395,8.961705 51.9516045,8.917155 C51.9503895,8.2998 51.9543045,7.68258 51.9479595,7.065225 C51.9466095,6.939675 51.9819795,6.902685 52.1076645,6.90633 C52.4135745,6.915105 52.7201595,6.908895 53.0263395,6.909435 C53.0887095,6.909435 53.1593145,6.89229 53.1231345,7.005555 C52.8918795,7.731045 52.5685545,8.406315 52.0618995,8.983845 C52.0385445,9.010305 52.0191045,9.04527 51.9763095,9.05013" id="Fill-28"></path>
                        <path d="M51.977241,0.076977 C52.085646,0.145422 52.153146,0.253962 52.227531,0.350892 C52.622811,0.865647 52.897806,1.442637 53.098011,2.057967 C53.132571,2.164482 53.099091,2.186352 53.000136,2.185137 C52.688961,2.181762 52.377921,2.182572 52.066881,2.185002 C51.992091,2.185542 51.949161,2.172042 51.949696,2.082672 C51.952941,1.424277 51.952806,0.766017 51.954561,0.107622 C51.954561,0.099792 51.965766,0.092097 51.977241,0.076977" id="Fill-30"></path>
                        <polygon id="Fill-32" points="52.842483 8.8517205 52.852068 8.8498305 52.850718 8.8569855"></polygon>
                    </g>
                </g>
            </g>
        </g>
    </g>
</svg>