<?xml version="1.0" encoding="UTF-8"?>
<svg width="194px" height="118px" viewBox="0 0 194 118" version="1.1" xmlns="http://www.w3.org/2000/svg" xmlns:xlink="http://www.w3.org/1999/xlink">
    <title>VirtualCard-Booking</title>
    <defs>
        <linearGradient x1="96.965666%" y1="33.7848524%" x2="35.7498018%" y2="59.0857609%" id="linearGradient-1">
            <stop stop-color="#0C3B7C" offset="0%"></stop>
            <stop stop-color="#3F6FB0" offset="52.6789485%"></stop>
            <stop stop-color="#0C3B7C" offset="100%"></stop>
        </linearGradient>
    </defs>
    <g id="Tarjetas-Gateways" stroke="none" stroke-width="1" fill="none" fill-rule="evenodd">
        <g id="Branding-Gateways-CreditCard" transform="translate(-1606.000000, -561.000000)">
            <g id="VirtualCard-Booking" transform="translate(1606.000000, 561.000000)">
                <g id="Gateways-v2-Copy-2" fill="url(#linearGradient-1)">
                    <g id="virtal-card-copy-5">
                        <path d="M3.656664,0 L189.692597,0 C191.712117,-8.15068972e-16 193.349261,1.63714424 193.349261,3.656664 L193.349261,113.869358 C193.349261,115.888877 191.712117,117.526022 189.692597,117.526022 L3.656664,117.526022 C1.63714424,117.526022 5.57639036e-15,115.888877 0,113.869358 L0,3.656664 C1.96769369e-16,1.63714424 1.63714424,5.70005028e-15 3.656664,0 Z" id="Rectangle-Copy"></path>
                    </g>
                </g>
                <g id="bookingcom-1" transform="translate(165.000000, 12.000000)">
                    <g id="Group" transform="translate(0.780247, 0.576790)">
                        <path d="M5.38901908,12.3908441 L2.87978415,12.3883354 L2.87978415,9.38799964 C2.87978415,8.74692759 3.12845899,8.4132782 3.67704198,8.3370497 L5.38903048,8.3370497 C6.60991811,8.3370497 7.39968422,9.10682649 7.39968422,10.3526979 C7.39968422,11.632322 6.62990743,12.3896012 5.38903048,12.3908441 L5.38901908,12.3908441 Z M2.87978415,4.29826155 L2.87978415,3.50849544 C2.87978415,2.8174558 3.17218918,2.4888009 3.81324983,2.44631363 L5.09786837,2.44631363 C6.1987859,2.44631363 6.85859295,3.10486635 6.85859295,4.20829253 C6.85859295,5.04803762 6.40622779,6.02899645 5.13785841,6.02899645 L2.87978415,6.02899645 L2.87978415,4.29826155 Z M8.59306801,7.29237136 L8.13945993,7.03744772 L8.53559731,6.69879246 C8.9966971,6.30265508 9.76897113,5.41167668 9.76897113,3.87463174 C9.76897113,1.52033966 7.94326132,0.00204112233 5.11785769,0.00204112233 L1.89381944,0.00204112233 L1.89381944,0.000786801347 L1.52642882,0.000786801347 C0.689180965,0.0320307969 0.0181306397,0.713081481 0.00938460157,1.55533522 L0.00938460157,14.9138423 L5.1815886,14.9138423 C8.32190662,14.9138423 10.3487981,13.2043511 10.3487981,10.5563882 C10.3487981,9.13056736 9.69399695,7.91217697 8.59306801,7.29237136" id="Shape" fill="#FFFFFF"></path>
                        <path d="M11.6958362,13.0684967 C11.6958362,12.0480268 12.518876,11.2224327 13.5329262,11.2224327 C14.5495419,11.2224327 15.3764245,12.0480268 15.3764245,13.0684967 C15.3764245,14.0876781 14.5495419,14.9145607 13.5329147,14.9145607 C12.518876,14.9145607 11.6958362,14.0876781 11.6958362,13.0684967" id="Path" fill="#00BAFC"></path>
                    </g>
                </g>
            </g>
        </g>
    </g>
</svg>